<svg viewBox="0 0 320 320" xmlns="http://www.w3.org/2000/svg" xmlns:xlink="http://www.w3.org/1999/xlink"><linearGradient id="a" gradientTransform="matrix(0 257 -257 0 160 38)" gradientUnits="userSpaceOnUse" spreadMethod="pad" x1="0" x2="1" y1="0" y2="0"><stop offset="0" stop-color="#d92028"/><stop offset=".5" stop-color="#ff3f10"/><stop offset="1" stop-color="#ffed10"/></linearGradient><path d="m98 170c-2 2-6 6-6 12-1 9 7 18 13 18 7 0 15-7 16-18 2-23-27-22-27-38 0-28 29-27 29-42 0-10-4-21-4-21s19 3 19 14c0 18-17 18-17 32 0 6 8 11 14 11 14 0 22-14 22-31 0-15-19-30-19-48 0-17 22-29 34-29 0 0-9 8-9 22 0 15 34 21 34 36 0 13-10 10-10 21 0 6 7 10 12 10 9 0 16-10 16-22 0-14-13-27-13-27 24 0 31 18 31 29 0 19-31 26-31 44 0 9 9 17 16 17 10 0 17-7 17-19 0-6-7-12-9-13 17 0 29 11 29 22 0 27-57 33-57 65 0 12 8 19 16 20 12 2 25-11 25-25s-8-22-8-22c11 0 26 17 26 37 0 31-33 65-97 65-51 0-97-23-97-65 0-48 35-55 35-55" fill="url(#a)"/></svg>